<svg width="165" height="33" viewBox="0 0 165 33" fill="none" xmlns="http://www.w3.org/2000/svg">
<path fill-rule="evenodd" clip-rule="evenodd" d="M143.534 27.5496H143.306V27.7776V32.5281V32.7561H143.534H144.035H144.263V32.5281V27.7776V27.5496H144.035H143.534ZM122.108 27.7327H121.88V27.9607V29.3502C121.643 29.1962 121.337 29.0845 120.952 29.0845C119.952 29.0845 119.228 29.9096 119.228 30.9546C119.228 31.9995 119.952 32.8246 120.952 32.8246C121.36 32.8246 121.679 32.7021 121.932 32.5251V32.7483H122.16H122.609H122.837V32.5203V27.9683V27.9607V27.7327H122.609H122.108ZM120.185 30.9622C120.185 30.6543 120.285 30.4227 120.431 30.2697C120.576 30.1166 120.779 30.0293 121.011 30.0293C121.419 30.0293 121.737 30.297 121.888 30.6276V31.3104C121.737 31.6275 121.419 31.8951 121.011 31.8951C120.779 31.8951 120.576 31.8079 120.431 31.6548C120.285 31.5018 120.185 31.2701 120.185 30.9622ZM109.362 27.8474C109.221 27.8474 109.081 27.8966 108.975 27.9998C108.867 28.1045 108.81 28.2497 108.81 28.4115C108.81 28.5737 108.868 28.7186 108.978 28.8221C109.085 28.9232 109.225 28.9679 109.362 28.9679C109.499 28.9679 109.639 28.9232 109.747 28.8221C109.857 28.7186 109.914 28.5737 109.914 28.4115C109.914 28.2478 109.858 28.1009 109.748 27.9956C109.64 27.8923 109.499 27.8474 109.362 27.8474ZM109.119 29.1764H108.891V29.4044V32.5281V32.7561H109.119H109.62H109.848V32.5281V29.4044V29.1764H109.62H109.119ZM95.3631 28.3044V28.0076L95.0763 28.0842L94.59 28.214L94.4208 28.2592V28.4343V29.1762H94.0888H93.8608V29.4042V29.8854V30.1134H94.0888H94.4208V31.5886C94.4208 31.9744 94.537 32.2919 94.7663 32.512C94.9939 32.7304 95.3035 32.8247 95.6361 32.8247C95.9524 32.8247 96.2745 32.7581 96.5202 32.6647L96.6672 32.6088V32.4516V31.9704V31.6266L96.3505 31.7604C96.1712 31.8361 95.9734 31.8875 95.7761 31.8875C95.5736 31.8875 95.4863 31.8514 95.4452 31.8144C95.4099 31.7826 95.3631 31.7075 95.3631 31.4969V30.1134H96.3287H96.5567V29.8854V29.4042V29.1762H96.3287H95.3631V28.3044ZM83.368 29.0921C82.9297 29.0921 82.4687 29.2374 82.1142 29.5488C81.7547 29.8645 81.519 30.3387 81.519 30.9621C81.519 31.5796 81.7458 32.0503 82.0995 32.3642C82.4485 32.674 82.9048 32.8169 83.3459 32.8169C83.7505 32.8169 84.1048 32.7426 84.4234 32.5775L84.5465 32.5137V32.3751V31.8557V31.4496L84.1998 31.661C83.9842 31.7925 83.6936 31.8797 83.4122 31.8797C83.16 31.8797 82.9235 31.8044 82.7539 31.6588C82.5897 31.5179 82.4687 31.2952 82.4687 30.9545C82.4687 30.6035 82.5943 30.3796 82.7618 30.2396C82.9356 30.0943 83.1764 30.0216 83.4269 30.0216C83.7091 30.0216 83.9711 30.1088 84.1434 30.2517L84.517 30.5615V30.0762V29.5721V29.4515L84.4173 29.3837C84.1115 29.1754 83.7388 29.0921 83.368 29.0921ZM85.9394 29.1763H85.7114V29.4043V31.3366C85.7114 31.7644 85.8421 32.1441 86.1044 32.4183C86.368 32.6939 86.7426 32.84 87.1846 32.84C87.5082 32.84 87.7989 32.7369 88.0323 32.5873V32.756H88.2603H88.7098H88.9378V32.528V29.4043V29.1763H88.7098H88.2161H87.9881V29.4043V31.4283C87.807 31.6901 87.5495 31.8952 87.2436 31.8952C87.0184 31.8952 86.8874 31.8381 86.8099 31.7578C86.7309 31.6759 86.6684 31.5295 86.6684 31.2678V29.4043V29.1763H86.4404H85.9394ZM91.5541 29.0921C91.2438 29.0921 90.9094 29.1633 90.6452 29.3423C90.371 29.5282 90.1841 29.8242 90.1841 30.2289C90.1841 30.5864 90.3427 30.8417 90.5681 31.0215C90.7816 31.1919 91.0549 31.2947 91.2951 31.3735C91.3675 31.3973 91.436 31.4187 91.5007 31.4389L91.5007 31.4389L91.5009 31.439L91.5009 31.439C91.667 31.4909 91.8079 31.5349 91.9239 31.5903C92.0861 31.6678 92.0924 31.7175 92.0924 31.7411C92.0924 31.7767 92.0839 31.7902 92.0793 31.7963C92.0728 31.805 92.0562 31.8214 92.0141 31.8388C91.9223 31.8767 91.7717 31.895 91.5615 31.895C91.2206 31.895 90.8132 31.7888 90.5586 31.6085L90.1988 31.3539V31.7946V32.2987V32.4192L90.2984 32.4871C90.6268 32.711 91.1252 32.8322 91.5836 32.8322C91.9285 32.8322 92.2839 32.7722 92.5608 32.603C92.8523 32.425 93.042 32.1333 93.042 31.7259C93.042 31.3671 92.8844 31.1119 92.6587 30.9329C92.4452 30.7637 92.1723 30.6634 91.9333 30.5866C91.8649 30.5646 91.7999 30.5446 91.7385 30.5258L91.7384 30.5257C91.569 30.4737 91.426 30.4298 91.3091 30.3734C91.1522 30.2978 91.1411 30.2465 91.1411 30.2137C91.1411 30.1679 91.1587 30.1299 91.2329 30.0909C91.3157 30.0473 91.4428 30.0216 91.5836 30.0216C91.9055 30.0216 92.2799 30.1335 92.4881 30.2732L92.8431 30.5113V30.0838V29.5874V29.452L92.7243 29.3872C92.4133 29.2176 91.9928 29.0921 91.5541 29.0921ZM99.342 29.0921C98.422 29.0921 97.5151 29.7512 97.5151 30.9621C97.5151 32.1731 98.422 32.8322 99.342 32.8322C99.7997 32.8322 100.255 32.6705 100.597 32.3508C100.943 32.0282 101.161 31.5561 101.161 30.9621C101.161 30.3689 100.945 29.8966 100.6 29.5737C100.258 29.2535 99.803 29.0921 99.342 29.0921ZM98.4722 30.9621C98.4722 30.6522 98.5748 30.4269 98.724 30.2794C98.8744 30.1308 99.0888 30.0445 99.342 30.0445C99.5951 30.0445 99.8096 30.1308 99.9599 30.2794C100.109 30.4269 100.212 30.6522 100.212 30.9621C100.212 31.272 100.109 31.4973 99.9599 31.6449C99.8096 31.7935 99.5951 31.8797 99.342 31.8797C99.0888 31.8797 98.8744 31.7935 98.724 31.6449C98.5748 31.4973 98.4722 31.272 98.4722 30.9621ZM102.605 32.5202H102.377V29.4041V29.1761H102.605H103.055H103.283V29.3265C103.489 29.1974 103.757 29.0921 104.079 29.0921C104.491 29.0921 104.836 29.2387 105.071 29.5012C105.344 29.2734 105.698 29.0921 106.127 29.0921C106.56 29.0921 106.912 29.2547 107.152 29.5387C107.387 29.8178 107.497 30.1933 107.497 30.5955V32.5202V32.7482H107.269H106.768H106.54V32.5202V30.5803C106.54 30.3847 106.486 30.2488 106.411 30.1648C106.339 30.0838 106.229 30.0292 106.068 30.0292C105.808 30.0292 105.588 30.1979 105.438 30.3777C105.445 30.4485 105.449 30.5204 105.449 30.5955V32.5202V32.7482H105.221H104.72H104.492V32.5202V30.5803C104.492 30.3831 104.439 30.2474 104.365 30.1641C104.295 30.0844 104.185 30.0292 104.02 30.0292C103.727 30.0292 103.494 30.2412 103.334 30.4431V32.5202V32.7482H103.106H102.605V32.5202ZM111.344 29.1763H111.116V29.4043V29.8549V30.0829H111.344H112.55L111.084 31.9199L111.035 31.9823V32.0621V32.5204V32.7484H111.263H113.724H113.952V32.5204V32.0698V31.8418H113.724H112.324L113.784 30.0044L113.834 29.9421V29.8625V29.4043V29.1763H113.606H111.344ZM116.582 29.0921C115.751 29.0921 114.858 29.7351 114.866 30.9553C114.866 31.569 115.081 32.0442 115.439 32.3638C115.794 32.6798 116.266 32.8245 116.752 32.8245C117.172 32.8245 117.605 32.7448 117.924 32.5663L118.041 32.501V32.3674V31.8633V31.4734L117.701 31.6646C117.476 31.7912 117.153 31.8874 116.825 31.8874C116.554 31.8874 116.312 31.8253 116.136 31.7067C116.029 31.6346 115.941 31.5386 115.885 31.4116H117.975H118.16L118.198 31.23C118.3 30.7404 118.236 30.2112 117.97 29.7966C117.699 29.3724 117.23 29.0921 116.582 29.0921ZM117.287 30.505H115.864C115.98 30.1943 116.276 30.0292 116.612 30.0292C116.922 30.0292 117.091 30.1484 117.185 30.2778C117.237 30.3493 117.269 30.4292 117.287 30.505ZM128.275 29.0921C127.442 29.0921 126.559 29.7366 126.559 30.9545C126.559 31.5686 126.774 32.0441 127.133 32.3638C127.487 32.6798 127.959 32.8245 128.445 32.8245C128.865 32.8245 129.299 32.7448 129.617 32.5663L129.734 32.501V32.3674V31.8633V31.4734L129.394 31.6646C129.169 31.7912 128.847 31.8874 128.519 31.8874C128.248 31.8874 128.005 31.8253 127.829 31.7067C127.722 31.6346 127.635 31.5386 127.579 31.4116H129.668H129.853L129.891 31.23C129.993 30.7404 129.929 30.2112 129.664 29.7966C129.392 29.3724 128.923 29.0921 128.275 29.0921ZM128.98 30.505H127.558C127.673 30.1943 127.969 30.0292 128.305 30.0292C128.615 30.0292 128.784 30.1484 128.878 30.2778C128.93 30.3493 128.963 30.4292 128.98 30.505ZM130.979 29.1763H130.53L130.795 29.5388L131.802 30.9166L130.729 32.3859L130.464 32.7484H130.913H131.488H131.606L131.674 32.6522L132.365 31.6775L133.055 32.6522L133.123 32.7484H133.241H133.816H134.263L134.001 32.3865L132.934 30.9165L133.934 29.5382L134.197 29.1763H133.75H133.175H133.057L132.989 29.2726L132.365 30.1551L131.74 29.2726L131.672 29.1763H131.554H130.979ZM136.579 29.0921C136.141 29.0921 135.68 29.2374 135.325 29.5488C134.966 29.8645 134.73 30.3387 134.73 30.9621C134.73 31.5796 134.957 32.0503 135.31 32.3642C135.659 32.674 136.116 32.8169 136.557 32.8169C136.961 32.8169 137.316 32.7426 137.634 32.5775L137.757 32.5137V32.3751V31.8557V31.4496L137.411 31.661C137.195 31.7924 136.905 31.8797 136.623 31.8797C136.371 31.8797 136.134 31.8044 135.965 31.6588C135.801 31.5179 135.68 31.2952 135.68 30.9545C135.68 30.6035 135.805 30.3796 135.973 30.2396C136.147 30.0943 136.387 30.0216 136.638 30.0216C136.913 30.0216 137.182 30.1091 137.354 30.2517L137.728 30.5615V30.0762V29.5721V29.4515L137.628 29.3837C137.322 29.1754 136.95 29.0921 136.579 29.0921ZM140.44 29.0921C139.608 29.0921 138.715 29.7351 138.723 30.9553C138.723 31.569 138.939 32.0442 139.297 32.3638C139.651 32.6798 140.124 32.8245 140.609 32.8245C141.029 32.8245 141.463 32.7448 141.781 32.5663L141.898 32.501V32.3674V31.8633V31.4734L141.558 31.6646C141.333 31.7912 141.011 31.8874 140.683 31.8874C140.412 31.8874 140.169 31.8253 139.993 31.7067C139.886 31.6346 139.799 31.5386 139.743 31.4116H141.832H142.018L142.055 31.23C142.157 30.7404 142.093 30.2112 141.828 29.7966C141.556 29.3724 141.087 29.0921 140.44 29.0921ZM141.144 30.505H139.722C139.837 30.1943 140.134 30.0292 140.469 30.0292C140.78 30.0292 140.949 30.1484 141.042 30.2778C141.094 30.3493 141.127 30.4292 141.144 30.505ZM145.929 27.5496H145.701V27.7776V32.5281V32.7561H145.929H146.43H146.658V32.5281V27.7776V27.5496H146.43H145.929ZM149.599 29.0921C148.774 29.0921 147.882 29.7359 147.882 30.9545C147.882 31.5686 148.097 32.0441 148.456 32.3638C148.81 32.6798 149.283 32.8245 149.768 32.8245C150.189 32.8245 150.622 32.7448 150.941 32.5663L151.057 32.501V32.3674V31.8633V31.4734L150.717 31.6646C150.492 31.7912 150.17 31.8874 149.842 31.8874C149.571 31.8874 149.328 31.8253 149.152 31.7067C149.045 31.6346 148.958 31.5386 148.902 31.4116H150.991H151.177L151.214 31.23C151.316 30.7404 151.253 30.2112 150.987 29.7966C150.715 29.3724 150.247 29.0921 149.599 29.0921ZM150.311 30.505H148.888C149.004 30.1943 149.3 30.0292 149.635 30.0292C149.946 30.0292 150.115 30.1484 150.209 30.2778C150.261 30.3493 150.293 30.4292 150.311 30.505ZM154.209 29.0921C153.882 29.0921 153.589 29.1973 153.354 29.3486V29.1761H153.126H152.677H152.449V29.4041V32.5202V32.7482H152.677H153.178H153.406V32.5202V30.4961C153.587 30.2344 153.844 30.0292 154.15 30.0292C154.335 30.0292 154.473 30.0828 154.564 30.1715C154.653 30.2588 154.725 30.4078 154.725 30.6566V32.5202V32.7482H154.953H155.454H155.682V32.5202V30.5955C155.682 30.1593 155.53 29.7808 155.262 29.5107C154.993 29.2408 154.622 29.0921 154.209 29.0921ZM158.713 29.0921C158.274 29.0921 157.813 29.2374 157.459 29.5488C157.099 29.8645 156.864 30.3387 156.864 30.9621C156.864 31.5796 157.091 32.0503 157.444 32.3642C157.793 32.674 158.249 32.8169 158.691 32.8169C159.095 32.8169 159.45 32.7426 159.768 32.5775L159.891 32.5137V32.3751V31.8557V31.4496L159.544 31.661C159.329 31.7925 159.038 31.8797 158.757 31.8797C158.505 31.8797 158.268 31.8044 158.099 31.6588C157.934 31.5179 157.813 31.2952 157.813 30.9545C157.813 30.6035 157.939 30.3796 158.107 30.2396C158.28 30.0943 158.521 30.0216 158.772 30.0216C159.047 30.0216 159.316 30.1091 159.488 30.2517L159.862 30.5615V30.0762V29.5721V29.4515L159.762 29.3837C159.456 29.1754 159.083 29.0921 158.713 29.0921ZM162.566 29.0921C161.741 29.0921 160.85 29.7359 160.85 30.9545C160.85 31.5686 161.065 32.0441 161.424 32.3638C161.778 32.6798 162.25 32.8245 162.736 32.8245C163.156 32.8245 163.59 32.7448 163.908 32.5663L164.025 32.501V32.3674V31.8633V31.4734L163.685 31.6646C163.46 31.7912 163.138 31.8874 162.81 31.8874C162.539 31.8874 162.296 31.8253 162.12 31.7067C162.013 31.6346 161.926 31.5386 161.87 31.4116H163.959H164.144L164.182 31.23C164.284 30.7404 164.22 30.2112 163.955 29.7966C163.683 29.3724 163.214 29.0921 162.566 29.0921ZM163.274 30.505H161.849C161.964 30.1943 162.26 30.0292 162.596 30.0292C162.907 30.0292 163.078 30.1487 163.172 30.2783C163.225 30.3501 163.257 30.4299 163.274 30.505Z" fill="#79858D"/>
<path fill-rule="evenodd" clip-rule="evenodd" d="M124.754 19.5977H126.021H126.036V13.3579C126.036 12.8004 125.933 12.2887 125.734 11.838C125.535 11.3874 125.277 10.9979 124.96 10.6695C124.651 10.3411 124.268 10.0738 123.833 9.86758C123.391 9.66137 122.905 9.55444 122.367 9.55444C121.092 9.55444 120.083 10.1043 119.346 11.2041C119.044 10.7153 118.609 10.3182 118.057 10.0127C117.504 9.71483 116.915 9.56208 116.303 9.56208C115.286 9.56208 114.417 9.93632 113.695 10.6848L112.634 9.82175V19.5977H113.901V13.3579C113.901 12.6094 114.144 12.0061 114.631 11.5555C115.117 11.1048 115.669 10.8757 116.303 10.8757C116.944 10.8757 117.511 11.1048 117.983 11.5555C118.454 12.0061 118.698 12.6094 118.698 13.3579V19.5977H119.965V13.3579C119.965 12.6094 120.201 12.0061 120.687 11.5555C121.173 11.1048 121.726 10.8757 122.359 10.8757C123 10.8757 123.56 11.1048 124.039 11.5555C124.518 12.0061 124.754 12.6094 124.754 13.3579V19.5977ZM42.6004 11.9907C43.3077 11.2499 44.1918 10.8757 45.2381 10.8757C46.2696 10.8757 47.1464 11.2499 47.8684 11.9984C48.5905 12.7468 48.9515 13.6557 48.9515 14.7249C48.9515 15.7942 48.5905 16.703 47.8684 17.4515C47.1464 18.2 46.2696 18.5742 45.2381 18.5742C44.1918 18.5742 43.3151 18.2076 42.6004 17.4668C41.8783 16.726 41.5246 15.8095 41.5246 14.7249C41.5246 13.6404 41.8857 12.7316 42.6004 11.9907ZM45.2381 19.8879C46.638 19.8879 47.8316 19.3532 48.8336 18.284L50.2188 19.6053V9.82932L48.8336 11.1659C47.839 10.0966 46.638 9.56201 45.2381 9.56201C43.8824 9.56201 42.7109 10.0661 41.731 11.0666C40.7436 12.0747 40.25 13.2891 40.25 14.7249C40.25 16.1302 40.7436 17.337 41.731 18.3604C42.7183 19.3762 43.8824 19.8879 45.2381 19.8879ZM59.2373 18.2841H55.0892L59.1195 9.82178H53.122V11.1354H57.0933L53.0557 19.5977H59.2373V18.2841ZM63.3271 16.8787L68.8384 11.8074C68.1458 11.1888 67.3353 10.8757 66.4143 10.8757C65.3681 10.8757 64.4913 11.2499 63.7766 11.9907C63.0619 12.7316 62.7082 13.6404 62.7082 14.7249C62.7082 15.504 62.9145 16.2219 63.3271 16.8787ZM69.693 16.5197L70.7982 17.1613C70.3856 17.9709 69.7815 18.6353 69.0005 19.1318C68.2195 19.6358 67.3574 19.8879 66.4143 19.8879C65.0586 19.8879 63.8945 19.3762 62.9072 18.3604C61.9272 17.3446 61.4336 16.1302 61.4336 14.7249C61.4336 13.2891 61.9272 12.0747 62.9072 11.0666C63.8945 10.0661 65.0586 9.56201 66.4143 9.56201C67.2764 9.56201 68.0868 9.7835 68.8457 10.2341C69.6046 10.6847 70.1941 11.2499 70.6067 11.9296L64.1745 17.8105C64.8228 18.3222 65.567 18.5742 66.4143 18.5742C67.1216 18.5742 67.7626 18.3909 68.3373 18.0243C68.9194 17.6577 69.3688 17.1537 69.693 16.5197ZM78.166 10.9673L78.7407 9.79877C78.3723 9.63839 77.9523 9.56201 77.5029 9.56201C76.4566 9.56201 75.5798 9.94388 74.8725 10.7076L73.8115 9.82168V19.5976H75.0788V13.3807C75.0788 12.6934 75.2998 12.1053 75.7567 11.6089C76.2061 11.1124 76.7882 10.868 77.4955 10.868C77.7607 10.868 77.9818 10.9062 78.166 10.9673ZM89.2988 11.4256L88.3041 12.2428C87.5526 11.3339 86.6021 10.8757 85.4675 10.8757C84.4212 10.8757 83.5445 11.2499 82.8298 11.9907C82.1151 12.7316 81.7541 13.6404 81.7541 14.7249C81.7541 15.8095 82.1151 16.726 82.8298 17.4668C83.5445 18.2076 84.4212 18.5742 85.4675 18.5742C86.5874 18.5742 87.5158 18.1465 88.2378 17.2835L89.2546 18.0931C88.7757 18.6659 88.2157 19.1088 87.5747 19.422C86.9263 19.7351 86.2264 19.8879 85.4749 19.8879C84.1265 19.8879 82.955 19.3762 81.9677 18.3604C80.9804 17.337 80.4941 16.1302 80.4941 14.7249C80.4941 13.2891 80.9878 12.0747 81.9677 11.0666C82.955 10.0661 84.1192 9.56201 85.4749 9.56201C86.2559 9.56201 86.9779 9.7224 87.6189 10.0432C88.2599 10.3563 88.8199 10.8222 89.2988 11.4256ZM93.8664 11.9907C94.5738 11.2499 95.4579 10.8757 96.5041 10.8757C97.5357 10.8757 98.4124 11.2499 99.1345 11.9984C99.8566 12.7468 100.218 13.6557 100.218 14.7249C100.218 15.7942 99.8566 16.703 99.1345 17.4515C98.4124 18.2 97.5357 18.5742 96.5041 18.5742C95.4579 18.5742 94.5811 18.2076 93.8664 17.4668C93.1444 16.726 92.7907 15.8095 92.7907 14.7249C92.7907 13.6404 93.1517 12.7316 93.8664 11.9907ZM100.033 11.0666C99.0608 10.0661 97.8893 9.56201 96.5041 9.56201C95.1558 9.56201 93.9843 10.0661 92.997 11.0666C92.0171 12.0747 91.5234 13.2891 91.5234 14.7249C91.5234 16.1302 92.0171 17.337 92.997 18.3604C93.9843 19.3762 95.1484 19.8879 96.5041 19.8879C97.8893 19.8879 99.0608 19.3762 100.033 18.3604C101.006 17.337 101.485 16.1302 101.485 14.7249C101.485 13.2891 101.006 12.0671 100.033 11.0666ZM105.037 17.5202C105.346 18.1541 105.855 18.4749 106.562 18.4749C107.041 18.4749 107.439 18.3069 107.763 17.9708C108.087 17.6348 108.249 17.2224 108.249 16.7259C108.249 16.3288 108.139 15.9775 107.91 15.6643C107.689 15.3512 107.409 15.1526 107.07 15.0533L105.965 14.7173C105.413 14.5416 104.963 14.2285 104.624 13.7702C104.285 13.3196 104.116 12.8003 104.116 12.2275C104.116 11.5095 104.359 10.8985 104.845 10.4021C105.332 9.89803 105.921 9.646 106.606 9.646C107.1 9.646 107.557 9.79111 107.977 10.0737C108.404 10.3639 108.706 10.7458 108.89 11.2193L107.733 11.7234C107.549 11.2117 107.174 10.9596 106.606 10.9596C106.253 10.9596 105.965 11.0895 105.729 11.3415C105.501 11.5935 105.383 11.8914 105.383 12.2275C105.383 12.8614 105.685 13.2738 106.282 13.4495L107.387 13.7855C108.021 13.9612 108.529 14.3201 108.92 14.8624C109.31 15.4046 109.509 16.0233 109.509 16.7259C109.509 17.2987 109.377 17.8181 109.119 18.284C108.861 18.7422 108.5 19.1088 108.058 19.3838C107.608 19.6511 107.115 19.7885 106.562 19.7885C106.009 19.7885 105.501 19.6434 105.037 19.3456C104.573 19.0477 104.204 18.6506 103.932 18.1389L105.037 17.5202ZM134.089 10.8757C133.043 10.8757 132.159 11.2499 131.451 11.9907C130.737 12.7316 130.376 13.6404 130.376 14.7249C130.376 15.8095 130.737 16.726 131.451 17.4668C132.166 18.2076 133.043 18.5742 134.089 18.5742C135.121 18.5742 135.997 18.2 136.719 17.4515C137.442 16.703 137.803 15.7942 137.803 14.7249C137.803 13.6557 137.442 12.7468 136.719 11.9984C135.997 11.2499 135.121 10.8757 134.089 10.8757ZM134.089 9.56201C135.474 9.56201 136.646 10.0661 137.618 11.0666C138.584 12.0671 139.07 13.2891 139.07 14.7249C139.07 16.1302 138.584 17.337 137.618 18.3604C136.646 19.3762 135.474 19.8879 134.089 19.8879C132.733 19.8879 131.569 19.3762 130.582 18.3604C129.602 17.337 129.108 16.1302 129.108 14.7249C129.108 13.2891 129.602 12.0747 130.582 11.0666C131.562 10.0661 132.733 9.56201 134.089 9.56201ZM144.138 18.4749C143.423 18.4749 142.922 18.1541 142.613 17.5202L141.508 18.1389C141.78 18.6506 142.149 19.0477 142.613 19.3456C143.077 19.6434 143.586 19.7885 144.138 19.7885C144.691 19.7885 145.192 19.6511 145.634 19.3838C146.083 19.1088 146.437 18.7422 146.695 18.284C146.953 17.8181 147.085 17.2987 147.085 16.7259C147.085 16.0233 146.886 15.4046 146.496 14.8624C146.105 14.3201 145.59 13.9612 144.963 13.7855L143.858 13.4495C143.261 13.2738 142.959 12.8614 142.959 12.2275C142.959 11.8914 143.077 11.5935 143.306 11.3415C143.541 11.0895 143.829 10.9596 144.182 10.9596C144.75 10.9596 145.125 11.2117 145.31 11.7234L146.466 11.2193C146.282 10.7458 145.98 10.3639 145.553 10.0737C145.133 9.79111 144.676 9.646 144.182 9.646C143.497 9.646 142.908 9.89803 142.421 10.4021C141.935 10.8985 141.692 11.5095 141.692 12.2275C141.692 12.8003 141.861 13.3196 142.2 13.7702C142.539 14.2285 142.989 14.5416 143.541 14.7173L144.647 15.0533C144.985 15.1526 145.265 15.3512 145.486 15.6643C145.715 15.9775 145.825 16.3288 145.825 16.7259C145.825 17.2224 145.663 17.6348 145.339 17.9708C145.015 18.3069 144.617 18.4749 144.138 18.4749Z" fill="#79858D"/>
<path fill-rule="evenodd" clip-rule="evenodd" d="M19.8934 3.2001C14.9863 7.25559 10.8161 12.2199 7.61843 17.8488C12.1865 11.6548 18.0514 6.53767 24.7709 2.91751C24.5867 2.78767 24.3952 2.65784 24.2036 2.528C24.152 2.49745 24.1005 2.4669 24.0563 2.42871C23.9789 2.38289 23.9034 2.33516 23.8279 2.28742C23.7523 2.23969 23.6768 2.19195 23.5994 2.14613C23.5737 2.13086 23.5497 2.1175 23.5258 2.10414L23.5258 2.10412C23.5018 2.09075 23.4779 2.07739 23.4521 2.06212C23.2679 1.95519 23.0837 1.8559 22.8921 1.75662L22.8479 1.7337C20.726 0.626272 18.324 0 15.7821 0C7.06583 0 0 7.32433 0 16.3594C0 16.5427 0.00736792 16.7337 0.0147358 16.917C0.294717 8.75253 6.76375 2.2225 14.7137 2.2225C16.541 2.2225 18.2798 2.57383 19.8934 3.2001ZM29.8105 8.87476C24.1667 12.6018 19.4512 17.7189 16.1357 23.7678C19.5544 19.277 23.8351 15.527 28.7053 12.7699C29.1695 14.2515 29.42 15.8325 29.42 17.4745C29.42 25.7077 23.1204 32.4134 15.2441 32.7113C15.421 32.7189 15.5978 32.7266 15.782 32.7266C24.4982 32.7266 31.5641 25.4022 31.5641 16.3671C31.5641 14.7174 31.3283 13.1288 30.8936 11.6319C30.6063 10.6619 30.2452 9.74543 29.8105 8.87476ZM27.7325 7.15632C26.3473 7.93535 24.999 8.79074 23.7022 9.71488C21.0792 11.5402 18.6773 13.694 16.4743 16.0692C15.3691 17.2454 14.3302 18.4903 13.3503 19.7887C12.363 21.0794 11.442 22.4313 10.5873 23.8289C8.86321 26.6166 7.43384 29.6105 6.24023 32.7342C6.98439 29.4577 8.17063 26.2882 9.67369 23.279C10.4399 21.7744 11.2873 20.3157 12.2082 18.9104C13.1292 17.5051 14.146 16.1609 15.2217 14.8702C17.3658 12.2734 19.8414 9.97455 22.5012 7.94298C23.8422 6.94248 25.2347 6.01071 26.6788 5.17058C27.4009 4.75052 28.1303 4.35338 28.8745 3.9715C29.2429 3.78057 29.6186 3.58963 29.9944 3.41397C30.1786 3.31468 30.3849 3.24594 30.628 3.29941C30.7373 3.31357 30.8593 3.37368 30.9881 3.43714C30.9982 3.44213 31.0083 3.44714 31.0185 3.45215C31.1659 3.53617 31.3133 3.62782 31.4975 3.81112L31.6301 4.13953C31.6301 4.38524 31.5927 4.55351 31.5581 4.7096C31.555 4.72332 31.552 4.73695 31.549 4.75052C31.5048 4.90327 31.4533 5.04838 31.3869 5.14767C31.2617 5.36916 31.0996 5.47608 30.9154 5.54482C30.5544 5.70521 30.1933 5.87323 29.8397 6.04889C29.125 6.40022 28.425 6.76681 27.7325 7.15632Z" fill="#005CB9"/>
</svg>
